<svg width="711" height="207" viewBox="0 0 711 207" fill="none" xmlns="http://www.w3.org/2000/svg">
<rect x="19.6172" y="18.041" width="5.17326" height="48.2837" rx="2.58663" fill="white"/>
<rect x="44.4023" y="52.0156" width="5.17326" height="48.2837" rx="2.58663" transform="rotate(120 44.4023 52.0156)" fill="white"/>
<rect x="41.8164" y="27.8716" width="5.17326" height="48.2837" rx="2.58663" transform="rotate(60 41.8164 27.8716)" fill="white"/>
<path d="M51.8179 44.477H63.7371V96.789H96.0182C100.322 96.789 103.688 97.1753 106.116 97.9478C108.544 98.7204 111.193 99.9344 114.063 101.59L114.394 101.755C119.029 104.846 122.836 109.094 125.816 114.502C128.796 119.91 130.286 125.318 130.286 130.726C130.286 137.127 128.851 142.866 125.982 147.942C123.223 153.019 119.36 156.992 114.394 159.861C109.427 162.62 103.744 164 97.3426 164H51.8179V44.477ZM97.5081 153.405C103.688 153.405 108.765 151.308 112.738 147.114C116.711 142.921 118.698 137.568 118.698 131.057C118.698 124.104 116.711 118.42 112.738 114.006C108.765 109.591 103.688 107.384 97.5081 107.384H63.7371V153.405H97.5081ZM91.0519 96.789C96.4597 96.5683 100.874 94.5818 104.295 90.8294C107.717 87.0771 109.427 82.3315 109.427 76.5926C109.427 70.302 107.441 65.1701 103.468 61.197C99.4946 57.1136 94.418 55.0719 88.2376 55.0719H51.8179V44.477H88.0721C94.3628 44.477 99.9913 45.8566 104.958 48.6157C109.924 51.3747 113.787 55.2374 116.546 60.2037C119.415 65.0597 120.85 70.633 120.85 76.9237C120.85 81.1175 119.691 85.532 117.373 90.1673C115.056 94.6921 112.021 98.4445 108.268 101.424L91.0519 96.789ZM197.142 103.907C201.888 103.907 206.137 102.859 209.889 100.762C213.752 98.6652 216.732 95.7406 218.829 91.9882C220.926 88.2359 221.974 83.9869 221.974 79.2413C221.974 74.6061 220.926 70.4675 218.829 66.8255C216.732 63.0732 213.807 60.2037 210.055 58.2172C206.303 56.1203 201.998 55.0719 197.142 55.0719H168.338V103.907H197.142ZM225.119 164L191.183 114.502H168.338V164H156.419V44.477H196.811C203.985 44.477 210.386 45.9669 216.015 48.9467C221.643 51.9265 226.002 56.1203 229.093 61.5281C232.293 66.8255 233.893 72.8403 233.893 79.5724C233.893 85.0906 232.679 90.2776 230.251 95.1336C227.823 99.8792 224.402 103.907 219.988 107.218C215.683 110.419 210.717 112.571 205.089 113.675L239.522 164H225.119ZM314.906 154.73C323.956 154.73 332.013 152.577 339.076 148.273C346.139 143.969 351.657 138.01 355.63 130.395C359.603 122.669 361.59 113.95 361.59 104.239C361.59 94.5266 359.603 85.8631 355.63 78.2481C351.657 70.5227 346.139 64.5079 339.076 60.2037C332.013 55.8996 323.956 53.7475 314.906 53.7475C305.857 53.7475 297.8 55.8996 290.737 60.2037C283.674 64.5079 278.156 70.5227 274.183 78.2481C270.21 85.8631 268.223 94.5266 268.223 104.239C268.223 113.95 270.21 122.669 274.183 130.395C278.156 138.01 283.674 143.969 290.737 148.273C297.8 152.577 305.857 154.73 314.906 154.73ZM314.906 43.1527C326.274 43.1527 336.372 45.7462 345.201 50.9333C354.14 56.1203 361.093 63.3491 366.06 72.6196C371.136 81.89 373.675 92.4297 373.675 104.239C373.675 116.047 371.136 126.587 366.06 135.857C361.093 145.128 354.14 152.357 345.201 157.544C336.372 162.731 326.274 165.324 314.906 165.324C303.539 165.324 293.386 162.731 284.446 157.544C275.617 152.357 268.664 145.128 263.588 135.857C258.621 126.587 256.138 116.047 256.138 104.239C256.138 92.4297 258.621 81.89 263.588 72.6196C268.664 63.3491 275.617 56.1203 284.446 50.9333C293.386 45.7462 303.539 43.1527 314.906 43.1527ZM449.735 154.73C458.784 154.73 466.841 152.577 473.904 148.273C480.967 143.969 486.485 138.01 490.458 130.395C494.431 122.669 496.418 113.95 496.418 104.239C496.418 94.5266 494.431 85.8631 490.458 78.2481C486.485 70.5227 480.967 64.5079 473.904 60.2037C466.841 55.8996 458.784 53.7475 449.735 53.7475C440.685 53.7475 432.628 55.8996 425.565 60.2037C418.502 64.5079 412.984 70.5227 409.011 78.2481C405.038 85.8631 403.051 94.5266 403.051 104.239C403.051 113.95 405.038 122.669 409.011 130.395C412.984 138.01 418.502 143.969 425.565 148.273C432.628 152.577 440.685 154.73 449.735 154.73ZM449.735 43.1527C461.102 43.1527 471.2 45.7462 480.029 50.9333C488.969 56.1203 495.921 63.3491 500.888 72.6196C505.964 81.89 508.503 92.4297 508.503 104.239C508.503 116.047 505.964 126.587 500.888 135.857C495.921 145.128 488.969 152.357 480.029 157.544C471.2 162.731 461.102 165.324 449.735 165.324C438.367 165.324 428.214 162.731 419.274 157.544C410.445 152.357 403.493 145.128 398.416 135.857C393.449 126.587 390.966 116.047 390.966 104.239C390.966 92.4297 393.449 81.89 398.416 72.6196C403.493 63.3491 410.445 56.1203 419.274 50.9333C428.214 45.7462 438.367 43.1527 449.735 43.1527ZM541.94 69.3087V164H530.021V44.477H541.94L586.306 127.084L630.672 44.477H642.757V164H630.837V69.3087L592.266 141.32H580.346L541.94 69.3087ZM689.013 135.361H678.087L675.935 44.477H691L689.013 135.361ZM683.716 149.598C686.144 149.598 688.075 150.37 689.51 151.915C691.055 153.35 691.827 155.281 691.827 157.709C691.827 160.248 691.055 162.289 689.51 163.834C688.075 165.38 686.144 166.152 683.716 166.152C681.288 166.152 679.246 165.38 677.591 163.834C676.046 162.179 675.273 160.137 675.273 157.709C675.273 155.281 676.046 153.35 677.591 151.915C679.136 150.37 681.177 149.598 683.716 149.598Z" fill="#E7E8E8"/>
</svg>
