<svg width="624" height="156" viewBox="0 0 624 156" fill="none" xmlns="http://www.w3.org/2000/svg">
<path d="M20.5664 123.82C17.0508 123.781 14.375 122.395 12.5391 119.66C10.7422 116.887 10.4297 112.746 11.6016 107.238L19.1602 70.9688H13.1836V70.9102L19.6289 68.9766L21.9727 57.3164L32.5781 55.4414L29.5898 69.9141L42.7734 68.9766L42.3047 70.9688L29.5898 70.0312L21.1523 109.641C20.3711 113.234 20.3711 115.93 21.1523 117.727C21.9727 119.523 23.6328 120.422 26.1328 120.422C27.7344 120.422 29.1211 120.07 30.293 119.367C31.5039 118.625 32.4805 117.707 33.2227 116.613L33.2812 116.672C32.5 118.234 31.4453 119.562 30.1172 120.656C28.8281 121.711 27.3633 122.492 25.7227 123C24.082 123.547 22.3633 123.82 20.5664 123.82ZM67.1484 37.3945L56.25 88.4883C57.8516 83.4102 59.9219 79.3086 62.4609 76.1836C65.0391 73.0586 67.793 70.793 70.7227 69.3867C73.6914 67.9414 76.5234 67.2188 79.2188 67.2188C83.3984 67.2188 86.6211 68.5078 88.8867 71.0859C91.1914 73.625 91.7188 77.7461 90.4688 83.4492L83.7891 114.621C83.3203 116.77 83.4375 118.273 84.1406 119.133C84.8828 119.992 85.8984 120.422 87.1875 120.422C88.2422 120.422 89.2969 120.188 90.3516 119.719C91.4062 119.25 92.2461 118.703 92.8711 118.078L92.9297 118.137C91.8359 119.816 90.1172 121.184 87.7734 122.238C85.4297 123.293 83.0469 123.82 80.625 123.82C78.0078 123.82 76.0156 122.98 74.6484 121.301C73.3203 119.582 73.1055 116.652 74.0039 112.512L80.8594 80.9297C81.5625 77.7266 81.4844 75.1289 80.625 73.1367C79.8047 71.1445 77.6367 70.1484 74.1211 70.1484C71.9336 70.1484 69.6875 70.9102 67.3828 72.4336C65.0781 73.957 62.9297 76.1445 60.9375 78.9961C58.9844 81.8086 57.3828 85.1875 56.1328 89.1328L48.8672 123H38.6719L55.3711 44.543C55.7227 42.9414 55.7031 41.8086 55.3125 41.1445C54.9609 40.4414 54.0039 39.7969 52.4414 39.2109L50.3906 38.4492V38.3906L67.1484 37.3945ZM119.121 123.82C115.488 123.82 112.227 122.98 109.336 121.301C106.445 119.621 104.16 117.16 102.48 113.918C100.84 110.676 100.02 106.75 100.02 102.141C100.02 97.4531 100.684 93.0195 102.012 88.8398C103.379 84.6211 105.273 80.8906 107.695 77.6484C110.156 74.4062 113.047 71.8672 116.367 70.0312C119.727 68.1562 123.398 67.2188 127.383 67.2188C131.641 67.2188 135.039 68.0977 137.578 69.8555C140.117 71.6133 141.387 74.0742 141.387 77.2383C141.387 79.7773 140.527 82.082 138.809 84.1523C137.129 86.1836 134.336 88.1367 130.43 90.0117C126.562 91.8867 121.328 93.8398 114.727 95.8711L110.742 97.1016V96.9844L114.727 95.6367C117.656 94.6602 120.273 93.4297 122.578 91.9453C124.883 90.4219 126.816 88.7227 128.379 86.8477C129.98 84.9336 131.191 82.8828 132.012 80.6953C132.832 78.4688 133.242 76.1641 133.242 73.7812C133.242 71.7891 132.812 70.2266 131.953 69.0938C131.094 67.9609 129.57 67.3945 127.383 67.3945C124.531 67.3945 122.051 68.5078 119.941 70.7344C117.832 72.9219 116.074 75.7539 114.668 79.2305C113.301 82.707 112.266 86.418 111.562 90.3633C110.898 94.2695 110.566 97.9609 110.566 101.438C110.566 105.773 111.172 109.387 112.383 112.277C113.594 115.129 115.234 117.277 117.305 118.723C119.375 120.168 121.68 120.891 124.219 120.891C127.188 120.891 129.766 120.207 131.953 118.84C134.18 117.434 135.781 116.125 136.758 114.914L136.816 114.973C135.762 116.496 134.355 117.941 132.598 119.309C130.879 120.637 128.887 121.73 126.621 122.59C124.355 123.41 121.855 123.82 119.121 123.82Z" fill="#F26A2B"/>
<path d="M173.36 95.643C176.358 101.223 179.397 105.053 182.479 107.135C185.643 109.217 188.808 110.258 191.972 110.258C197.385 110.258 201.341 109.217 203.84 107.135C206.421 104.97 207.712 102.055 207.712 98.3912C207.712 96.226 206.962 94.3938 205.463 92.8948C204.048 91.3958 202.216 90.1466 199.967 89.1473C197.802 88.148 194.762 86.9821 190.848 85.6496C184.852 83.4844 179.939 81.444 176.108 79.5286C172.36 77.53 169.112 74.6569 166.364 70.9093C163.616 67.0785 162.242 62.1651 162.242 56.169C162.242 50.7559 163.574 46.0507 166.239 42.0533C168.904 38.056 172.61 34.9747 177.357 32.8094C182.187 30.6442 187.725 29.5616 193.971 29.5616C197.719 29.5616 201.591 30.3944 205.588 32.0599C209.669 33.6422 213.417 36.1822 216.831 39.6799C220.329 43.0943 223.077 47.4248 225.076 52.6713L208.461 58.7923C206.463 53.8789 204.173 50.4645 201.591 48.5491C199.093 46.6337 196.553 45.6759 193.971 45.6759C191.223 45.6759 188.849 46.134 186.851 47.05C184.935 47.9661 183.478 49.2153 182.479 50.7976C181.563 52.3799 181.105 54.1704 181.105 56.169C181.105 58.3343 181.854 60.208 183.353 61.7903C184.852 63.3726 186.726 64.7051 188.974 65.7877C191.306 66.8703 194.512 68.2028 198.593 69.7851C204.506 72.1169 209.294 74.2821 212.959 76.2808C216.706 78.2795 219.912 81.1109 222.577 84.7752C225.242 88.3562 226.575 92.8948 226.575 98.3912C226.575 103.888 225.159 108.759 222.327 113.007C219.579 117.171 215.582 120.46 210.335 122.875C205.172 125.207 199.051 126.373 191.972 126.373C185.06 126.373 178.689 124.457 172.86 120.627C167.114 116.712 162.159 111.299 157.995 104.387L173.36 95.643ZM285.376 109.759C291.288 109.759 296.41 108.468 300.741 105.886C305.154 103.305 308.527 99.6404 310.859 94.8935C313.191 90.0634 314.357 84.4004 314.357 77.9047C314.357 71.409 313.191 65.7877 310.859 61.0408C308.527 56.2107 305.154 52.5048 300.741 49.9231C296.41 47.3415 291.288 46.0507 285.376 46.0507C279.463 46.0507 274.3 47.3415 269.886 49.9231C265.555 52.5048 262.224 56.2107 259.892 61.0408C257.561 65.7877 256.395 71.409 256.395 77.9047C256.395 84.4004 257.561 90.0634 259.892 94.8935C262.224 99.6404 265.555 103.305 269.886 105.886C274.3 108.468 279.463 109.759 285.376 109.759ZM285.376 29.5616C294.62 29.5616 302.864 31.6435 310.109 35.8075C317.438 39.8881 323.142 45.5927 327.223 52.9212C331.304 60.2497 333.344 68.5775 333.344 77.9047C333.344 87.2319 331.304 95.5597 327.223 102.888C323.142 110.217 317.438 115.963 310.109 120.127C302.864 124.208 294.62 126.248 285.376 126.248C276.132 126.248 267.846 124.208 260.517 120.127C253.272 115.963 247.609 110.217 243.528 102.888C239.448 95.5597 237.407 87.2319 237.407 77.9047C237.407 68.5775 239.448 60.2497 243.528 52.9212C247.609 45.5927 253.272 39.8881 260.517 35.8075C267.846 31.6435 276.132 29.5616 285.376 29.5616ZM384.096 126.123C376.351 126.123 369.605 124.499 363.859 121.251C358.196 117.92 353.824 113.298 350.743 107.385C347.745 101.473 346.246 94.6853 346.246 87.0237V30.5609H365.233V86.7739C365.233 93.6027 366.774 98.9325 369.855 102.763C372.936 106.511 377.683 108.385 384.096 108.385C390.508 108.385 395.255 106.511 398.336 102.763C401.418 98.9325 402.958 93.6027 402.958 86.7739V30.5609H421.946V87.0237C421.946 94.6853 420.405 101.473 417.324 107.385C414.326 113.298 409.954 117.92 404.207 121.251C398.545 124.499 391.841 126.123 384.096 126.123ZM519.274 125.249H497.788L457.69 62.1651V125.249H438.702V30.5609H460.188L500.287 93.7693V30.5609H519.274V125.249ZM567.875 108.759C573.705 108.759 578.743 107.51 582.99 105.012C587.321 102.513 590.652 98.9325 592.983 94.2689C595.315 89.6053 596.481 84.1506 596.481 77.9047C596.481 71.6588 595.315 66.2041 592.983 61.5405C590.652 56.8769 587.321 53.2959 582.99 50.7976C578.743 48.2992 573.705 47.05 567.875 47.05L556.632 47.175V108.634L567.875 108.759ZM568.25 30.5609C577.41 30.5609 585.572 32.5596 592.734 36.557C599.896 40.5543 605.475 46.1756 609.473 53.4208C613.47 60.5828 615.469 68.7441 615.469 77.9047C615.469 87.0653 613.47 95.2683 609.473 102.513C605.475 109.675 599.896 115.255 592.734 119.252C585.572 123.25 577.41 125.249 568.25 125.249H537.645V30.5609H568.25Z" fill="#E7E8E8"/>
</svg>
