<svg width="606" height="98" viewBox="0 0 606 98" fill="none" xmlns="http://www.w3.org/2000/svg">
<path d="M109.121 94.8203C105.488 94.8203 102.227 93.9805 99.3359 92.3008C96.4453 90.6211 94.1602 88.1602 92.4805 84.918C90.8398 81.6758 90.0195 77.75 90.0195 73.1406C90.0195 68.4531 90.6836 64.0195 92.0117 59.8398C93.3789 55.6211 95.2734 51.8906 97.6953 48.6484C100.156 45.4062 103.047 42.8672 106.367 41.0312C109.727 39.1562 113.398 38.2188 117.383 38.2188C121.641 38.2188 125.039 39.0977 127.578 40.8555C130.117 42.6133 131.387 45.0742 131.387 48.2383C131.387 50.7773 130.527 53.082 128.809 55.1523C127.129 57.1836 124.336 59.1367 120.43 61.0117C116.562 62.8867 111.328 64.8398 104.727 66.8711L100.742 68.1016V67.9844L104.727 66.6367C107.656 65.6602 110.273 64.4297 112.578 62.9453C114.883 61.4219 116.816 59.7227 118.379 57.8477C119.98 55.9336 121.191 53.8828 122.012 51.6953C122.832 49.4688 123.242 47.1641 123.242 44.7812C123.242 42.7891 122.812 41.2266 121.953 40.0938C121.094 38.9609 119.57 38.3945 117.383 38.3945C114.531 38.3945 112.051 39.5078 109.941 41.7344C107.832 43.9219 106.074 46.7539 104.668 50.2305C103.301 53.707 102.266 57.418 101.562 61.3633C100.898 65.2695 100.566 68.9609 100.566 72.4375C100.566 76.7734 101.172 80.3867 102.383 83.2773C103.594 86.1289 105.234 88.2773 107.305 89.7227C109.375 91.168 111.68 91.8906 114.219 91.8906C117.188 91.8906 119.766 91.207 121.953 89.8398C124.18 88.4336 125.781 87.125 126.758 85.9141L126.816 85.9727C125.762 87.4961 124.355 88.9414 122.598 90.3086C120.879 91.6367 118.887 92.7305 116.621 93.5898C114.355 94.4102 111.855 94.8203 109.121 94.8203Z" fill="#F26A2B"/>
<path d="M57.1484 8.39453L46.25 59.4883C47.8516 54.4102 49.9219 50.3086 52.4609 47.1836C55.0391 44.0586 57.793 41.793 60.7227 40.3867C63.6914 38.9414 66.5234 38.2188 69.2188 38.2188C73.3984 38.2188 76.6211 39.5078 78.8867 42.0859C81.1914 44.625 81.7188 48.7461 80.4688 54.4492L73.7891 85.6211C73.3203 87.7695 73.4375 89.2734 74.1406 90.1328C74.8828 90.9922 75.8984 91.4219 77.1875 91.4219C78.2422 91.4219 79.2969 91.1875 80.3516 90.7188C81.4062 90.25 82.2461 89.7031 82.8711 89.0781L82.9297 89.1367C81.8359 90.8164 80.1172 92.1836 77.7734 93.2383C75.4297 94.293 73.0469 94.8203 70.625 94.8203C68.0078 94.8203 66.0156 93.9805 64.6484 92.3008C63.3203 90.582 63.1055 87.6523 64.0039 83.5117L70.8594 51.9297C71.5625 48.7266 71.4844 46.1289 70.625 44.1367C69.8047 42.1445 67.6367 41.1484 64.1211 41.1484C61.9336 41.1484 59.6875 41.9102 57.3828 43.4336C55.0781 44.957 52.9297 47.1445 50.9375 49.9961C48.9844 52.8086 47.3828 56.1875 46.1328 60.1328L38.8672 94H28.6719L45.3711 15.543C45.7227 13.9414 45.7031 12.8086 45.3125 12.1445C44.9609 11.4414 44.0039 10.7969 42.4414 10.2109L40.3906 9.44922V9.39062L57.1484 8.39453Z" fill="#F26A2B"/>
<path d="M10.565 94.8203C7.04934 94.7812 4.37356 93.3945 2.53762 90.6602C0.740748 87.8867 0.428248 83.7461 1.60012 78.2383L9.15872 41.9688H3.18215V41.9102L9.62747 39.9766L11.9712 28.3164L22.5767 26.4414L19.5884 40.9141L32.772 39.9766L32.3032 41.9688L19.5884 41.0312L11.1509 80.6406C10.3697 84.2344 10.3697 86.9297 11.1509 88.7266C11.9712 90.5234 13.6314 91.4219 16.1314 91.4219C17.7329 91.4219 19.1197 91.0703 20.2915 90.3672C21.5025 89.625 22.479 88.707 23.2212 87.6133L23.2798 87.6719C22.4986 89.2344 21.4439 90.5625 20.1157 91.6562C18.8267 92.7109 17.3618 93.4922 15.7212 94C14.0806 94.5469 12.3618 94.8203 10.565 94.8203Z" fill="#F26A2B"/>
<path d="M557.871 79.7595C563.7 79.7595 568.739 78.5103 572.986 76.012C577.316 73.5136 580.647 69.9326 582.979 65.2691C585.311 60.6055 586.477 55.1507 586.477 48.9048C586.477 42.6589 585.311 37.2042 582.979 32.5406C580.647 27.877 577.316 24.2961 572.986 21.7977C568.739 19.2993 563.7 18.0502 557.871 18.0502L546.628 18.1751V79.6346L557.871 79.7595ZM558.245 1.56104C567.406 1.56104 575.567 3.55972 582.729 7.55708C589.891 11.5544 595.471 17.1757 599.468 24.421C603.466 31.5829 605.464 39.7442 605.464 48.9048C605.464 58.0655 603.466 66.2684 599.468 73.5136C595.471 80.6756 589.891 86.2552 582.729 90.2526C575.567 94.25 567.406 96.2486 558.245 96.2486H527.641V1.56104H558.245Z" fill="#E7E8E8"/>
<path d="M509.271 96.2486H487.785L447.687 33.1652V96.2486H428.699V1.56104H450.185L490.284 64.7694V1.56104H509.271V96.2486Z" fill="#E7E8E8"/>
<path d="M374.092 97.1231C366.347 97.1231 359.602 95.4991 353.856 92.2513C348.193 88.9201 343.821 84.2982 340.739 78.3854C337.741 72.4726 336.242 65.6854 336.242 58.0238V1.56104H355.23V57.774C355.23 64.6028 356.77 69.9326 359.852 73.7635C362.933 77.511 367.68 79.3848 374.092 79.3848C380.505 79.3848 385.252 77.511 388.333 73.7635C391.414 69.9326 392.955 64.6028 392.955 57.774V1.56104H411.942V58.0238C411.942 65.6854 410.402 72.4726 407.32 78.3854C404.322 84.2982 399.95 88.9201 394.204 92.2513C388.541 95.4991 381.837 97.1231 374.092 97.1231Z" fill="#E7E8E8"/>
<path d="M275.375 80.7587C281.287 80.7587 286.409 79.4679 290.74 76.8862C295.153 74.3046 298.526 70.6403 300.858 65.8935C303.19 61.0633 304.356 55.4004 304.356 48.9047C304.356 42.4089 303.19 36.7877 300.858 32.0408C298.526 27.2106 295.153 23.5047 290.74 20.9231C286.409 18.3415 281.287 17.0507 275.375 17.0507C269.462 17.0507 264.299 18.3415 259.885 20.9231C255.554 23.5047 252.223 27.2106 249.891 32.0408C247.56 36.7877 246.394 42.4089 246.394 48.9047C246.394 55.4004 247.56 61.0633 249.891 65.8935C252.223 70.6403 255.554 74.3046 259.885 76.8862C264.299 79.4679 269.462 80.7587 275.375 80.7587ZM275.375 0.561523C284.619 0.561523 292.863 2.64349 300.108 6.80741C307.437 10.8881 313.141 16.5926 317.222 23.9211C321.303 31.2496 323.343 39.5775 323.343 48.9047C323.343 58.2319 321.303 66.5597 317.222 73.8882C313.141 81.2167 307.437 86.9629 300.108 91.1268C292.863 95.2075 284.619 97.2478 275.375 97.2478C266.131 97.2478 257.845 95.2075 250.516 91.1268C243.271 86.9629 237.608 81.2167 233.527 73.8882C229.447 66.5597 227.406 58.2319 227.406 48.9047C227.406 39.5775 229.447 31.2496 233.527 23.9211C237.608 16.5926 243.271 10.8881 250.516 6.80741C257.845 2.64349 266.131 0.561523 275.375 0.561523Z" fill="#E7E8E8"/>
<path d="M163.357 66.643C166.355 72.2226 169.395 76.0534 172.476 78.1354C175.641 80.2174 178.805 81.2583 181.97 81.2583C187.383 81.2583 191.339 80.2174 193.837 78.1354C196.419 75.9702 197.709 73.0554 197.709 69.3912C197.709 67.2259 196.96 65.3938 195.461 63.8948C194.045 62.3958 192.213 61.1466 189.965 60.1473C187.799 59.1479 184.76 57.982 180.846 56.6496C174.849 54.4843 169.936 52.444 166.105 50.5286C162.358 48.5299 159.11 45.6568 156.362 41.9093C153.613 38.0785 152.239 33.165 152.239 27.169C152.239 21.7559 153.572 17.0507 156.237 13.0533C158.902 9.05592 162.608 5.97462 167.354 3.80938C172.185 1.64414 177.723 0.561523 183.968 0.561523C187.716 0.561523 191.588 1.39431 195.586 3.05987C199.666 4.64216 203.414 7.18216 206.828 10.6799C210.326 14.0943 213.074 18.4248 215.073 23.6713L198.459 29.7923C196.46 24.8788 194.17 21.4644 191.588 19.549C189.09 17.6336 186.55 16.6759 183.968 16.6759C181.22 16.6759 178.847 17.1339 176.848 18.05C174.933 18.9661 173.475 20.2152 172.476 21.7975C171.56 23.3798 171.102 25.1703 171.102 27.169C171.102 29.3342 171.851 31.208 173.35 32.7903C174.849 34.3726 176.723 35.705 178.972 36.7877C181.304 37.8703 184.51 39.2027 188.59 40.785C194.503 43.1168 199.292 45.2821 202.956 47.2807C206.704 49.2794 209.91 52.1109 212.575 55.7751C215.24 59.3561 216.572 63.8948 216.572 69.3912C216.572 74.8875 215.156 79.7593 212.325 84.0065C209.577 88.1705 205.579 91.46 200.333 93.875C195.169 96.2068 189.048 97.3727 181.97 97.3727C175.058 97.3727 168.687 95.4573 162.857 91.6265C157.111 87.7124 152.156 82.2993 147.992 75.3872L163.357 66.643Z" fill="#E7E8E8"/>
<ellipse cx="275" cy="48.5" rx="31" ry="33.5" fill="black"/>
</svg>
